<svg width="34" height="32" viewBox="0 0 34 32" fill="none" xmlns="http://www.w3.org/2000/svg">
<rect x="0.596497" width="32.9357" height="32" rx="16" fill="#FFEBEB"/>
<g clip-path="url(#clip0_1_1324)">
<path d="M18.5121 24.1171C18.4434 24.0428 18.3693 23.9722 18.3066 23.8929C17.1982 22.4901 16.0901 21.0868 14.986 19.6802C14.8986 19.5688 14.8051 19.5138 14.665 19.4938C12.884 19.2395 11.1033 18.9801 9.3233 18.7195C8.92127 18.6607 8.68734 18.3371 8.82724 17.9999C8.88296 17.8651 9.01116 17.7407 9.13674 17.6572C10.6095 16.6787 12.0879 15.7087 13.565 14.7364C15.4252 13.5117 17.2854 12.2864 19.146 11.062C19.4443 10.8655 19.7652 10.8844 19.9307 11.1412C20.0127 11.2683 20.0526 11.4499 20.0444 11.6037C19.9495 13.3751 19.8414 15.1457 19.737 16.9163C19.6074 19.1281 19.4772 21.3401 19.3486 23.552C19.3377 23.7442 19.3071 23.924 19.1457 24.0549C18.9673 24.1998 18.723 24.2215 18.5121 24.1171Z" fill="#CC1E1E"/>
</g>
<defs>
<clipPath id="clip0_1_1324">
<rect width="12" height="12" fill="white" transform="translate(18.9888 24.3923) rotate(-150)"/>
</clipPath>
</defs>
</svg>
