<svg width="34" height="32" viewBox="0 0 34 32" fill="none" xmlns="http://www.w3.org/2000/svg">
<rect x="0.596497" width="32.9357" height="32" rx="16" fill="#D5EED5"/>
<g clip-path="url(#clip0_1_1334)">
<path d="M15.0732 8.27521C15.1419 8.34954 15.2159 8.42012 15.2787 8.49939C16.3871 9.90223 17.4952 11.3055 18.5993 12.7121C18.6867 12.8235 18.7802 12.8785 18.9203 12.8985C20.7013 13.1528 22.482 13.4122 24.262 13.6728C24.664 13.7316 24.898 14.0552 24.7581 14.3924C24.7023 14.5272 24.5741 14.6516 24.4486 14.7351C22.9758 15.7136 21.4974 16.6836 20.0203 17.6559C18.16 18.8806 16.2999 20.1059 14.4393 21.3303C14.141 21.5268 13.8201 21.5079 13.6546 21.2511C13.5726 21.124 13.5327 20.9424 13.5409 20.7886C13.6358 19.0172 13.7439 17.2466 13.8483 15.476C13.9779 13.2642 14.1081 11.0522 14.2367 8.84029C14.2476 8.64811 14.2782 8.46835 14.4396 8.33736C14.618 8.19253 14.8623 8.17078 15.0732 8.27521Z" fill="#1A9417"/>
</g>
<defs>
<clipPath id="clip0_1_1334">
<rect width="12" height="12" fill="white" transform="translate(14.5965 8) rotate(30)"/>
</clipPath>
</defs>
</svg>
